<?xml version="1.0" encoding="utf-8"?>
<!-- Generator: Adobe Illustrator 18.0.0, SVG Export Plug-In . SVG Version: 6.00 Build 0)  -->
<!DOCTYPE svg PUBLIC "-//W3C//DTD SVG 1.1//EN" "http://www.w3.org/Graphics/SVG/1.1/DTD/svg11.dtd">
<svg version="1.1" id="Layer_1" xmlns="http://www.w3.org/2000/svg" xmlns:xlink="http://www.w3.org/1999/xlink" x="0px" y="0px"
	 viewBox="0 0 185 77" enable-background="new 0 0 185 77" xml:space="preserve">
<g>
	<g>
		<path fill="#010101" d="M94.9,75v-1.4h1.9l-1.5-3.4h-6.8L87,73.7h1.8V75h-5.2v-1.4h1.8l5.3-11.9h-2v-1.4h3.8l5.7,13.3h1.8V75H94.9
			z M92,62l-3,7.1h5.9L92,62z"/>
		<path fill="#010101" d="M103.8,66.5c0.5-1.5,1.9-2.1,3.4-2.2v1.3c-2.4,0.2-3.4,1.6-3.4,3.9v4.3h1.8V75h-5v-1.3h1.8v-8.2h-1.8v-1.3
			h3.2V66.5z"/>
		<path fill="#010101" d="M119.2,67.5h-1.3c-0.8-1.3-2.2-2.1-3.7-2.1c-2.4,0-4.2,1.9-4.2,4.3c0,2.4,1.9,4.2,4.3,4.2
			c1.5,0,3.1-0.9,3.7-2.3h1.5c-0.8,2.2-3,3.7-5.3,3.7c-3.1,0-5.6-2.5-5.6-5.6c0-1.5,0.6-3,1.6-4c1-1,2.4-1.7,3.9-1.7
			c1.5,0,2.8,0.6,3.8,1.7v-1.5h1.3V67.5z"/>
		<path fill="#010101" d="M123.3,66.3c0.7-1.4,2-2.2,3.6-2.2c1.3,0,2.4,0.5,3.2,1.5c0.9,1.1,1,2.3,1,3.7v4.5h1.8V75h-5v-1.3h1.8
			v-3.9c0-1,0.1-2-0.5-2.9c-0.6-1-1.6-1.5-2.7-1.5c-0.9,0-1.8,0.4-2.4,1.1c-0.8,0.9-0.8,1.8-0.8,3v4.3h1.8V75h-5v-1.3h1.8V61.7h-1.8
			v-1.3h3.2V66.3z"/>
		<path fill="#010101" d="M136.5,73.8h1.8V75h-5v-1.3h1.8v-8.2h-1.8v-1.3h3.2V73.8z M136.5,62.5h-1.4v-2.1h1.4V62.5z"/>
		<path fill="#010101" d="M142,73.8h2.5V75h-3.9v-9.5h-2.1v-1.3h2.1v-3.9h1.4v3.9h2.4v1.3H142V73.8z"/>
		<path fill="#010101" d="M155.9,72c-0.9,2-2.9,3.3-5.1,3.3c-3.1,0-5.6-2.5-5.6-5.6c0-3.1,2.4-5.7,5.5-5.7c3.2,0,5.7,2.5,5.7,5.7
			v0.4h-9.9c0.1,2.2,2,4,4.2,4c1.6,0,3-0.7,3.7-2.1H155.9z M155.1,69c-0.3-2.2-2.2-3.7-4.4-3.7c-2.1,0-3.9,1.7-4.2,3.7H155.1z"/>
		<path fill="#010101" d="M167.6,67.5h-1.3c-0.8-1.3-2.2-2.1-3.7-2.1c-2.4,0-4.2,1.9-4.2,4.3c0,2.4,1.9,4.2,4.4,4.2
			c1.5,0,3.1-0.9,3.7-2.3h1.5c-0.8,2.2-3,3.7-5.3,3.7c-3.1,0-5.6-2.5-5.6-5.6c0-1.5,0.6-3,1.6-4c1-1,2.4-1.7,3.9-1.7
			c1.5,0,2.8,0.6,3.8,1.7v-1.5h1.3V67.5z"/>
		<path fill="#010101" d="M171.9,73.8h2.5V75h-3.9v-9.5h-2.1v-1.3h2.1v-3.9h1.4v3.9h2.4v1.3h-2.4V73.8z"/>
		<path fill="#010101" d="M181.3,67c0-0.6-0.3-1-0.7-1.3c-0.4-0.3-0.9-0.5-1.5-0.5c-1.1,0-2.1,0.7-2.1,1.8c0,1.4,1.3,1.7,2.4,1.9
			c0.8,0.2,1.7,0.3,2.4,0.8c0.9,0.5,1.3,1.4,1.3,2.4c0,0.7-0.2,1.2-0.5,1.7c-0.5,1-1.9,1.6-3.1,1.6c-1.3,0-2.3-0.5-3-1.6V75h-1.1V72
			h1.1c0.1,1.3,1.3,2.3,2.7,2.3c1.2,0,2.3-0.8,2.3-2.1c0-1.5-1.3-1.7-2.5-2c-0.8-0.2-1.7-0.3-2.4-0.8c-0.8-0.5-1.3-1.3-1.3-2.3
			c0-0.7,0.1-1.3,0.6-1.8c0.6-0.8,1.8-1.2,2.9-1.2c1,0,1.9,0.3,2.4,1.2v-1h1.1V67H181.3z"/>
	</g>
	<path fill="#39BB9A" d="M73.9,2.7L73.9,2.7L73.9,2.7l-72.3,0v0h0V75h0v0h72.3v0h0V2.7z M37.7,37.1L37.7,37.1l-8.6-8.6L52.4,5.3
		h17.1L37.7,37.1z M26.5,48.3L4.2,25.9V7.1l31.8,31.8L26.5,48.3z M27.4,26.7l-8.8-8.8L30.9,5.3h17.8L27.4,26.7z M16.7,16L6,5.3h21.3
		L16.7,16z M24.7,50.1l-8.8,8.8L4.2,47.4V29.6L24.7,50.1z M14.1,60.7l-9.9,9.9V51L14.1,60.7z M37.7,40.7l8.6,8.6L23.2,72.5H6
		L37.7,40.7z M48.2,51.1L57,60L44.7,72.5H26.9L48.2,51.1z M58.8,61.8l10.7,10.7H48.3L58.8,61.8z M39.6,38.9l9.5-9.5l22.3,22.3v18.9
		L39.6,38.9z M50.8,27.6l8.8-8.8l11.7,11.5v12.6v5.2L50.8,27.6z M61.5,17l9.8-9.8v19.5L61.5,17z"/>
	<g>
		<path fill="#010101" d="M106.5,13.5c-0.6-5.2-4.4-8.1-9.1-8.1c-4.6,0-8.8,3.2-8.8,8c0,2.4,1,4.9,3,6.3c2,1.5,5.1,2.1,7.6,2.7
			c3.3,0.8,6.5,1.5,9.2,3.8c2.8,2.3,4.3,5.7,4.3,9.3c0,3.1-0.6,5.7-2.6,8.3c-2.9,3.7-6.5,5.4-11.4,5.4c-4.2,0-8-1.8-10.4-5.4v4.5
			h-3.8V36h3.8c0.6,5.4,4.5,9,10.2,9c5.2,0,9.6-3.7,9.6-9c0-6.7-5.2-8.2-10.6-9.5c-3.1-0.8-6-1.4-8.7-3.4c-3.1-2.3-4.7-5.7-4.7-9.5
			c0-3.3,1.1-5.5,2.4-7.2c2.4-3.3,6.8-4.9,11.1-4.9c3.6,0,7.5,1.6,9,4.9V2.6h3.8v11H106.5z"/>
		<path fill="#010101" d="M146.7,48.3h-30.9v-3.8l23.8-37.7h-19v7.6h-4V2.6h28.6v3.7l-23.8,37.9h21.4v-7.6h4V48.3z"/>
		<path fill="#010101" d="M182.3,36.5v11.8h-32.2v-4.2h5.8V6.8h-5.8V2.6h32.2v11.8h-4.6V6.8h-17.2v16.5h17.7v3.8h-17.7v17h17.2v-7.6
			H182.3z"/>
	</g>
</g>
</svg>
